<?xml version="1.0" encoding="UTF-8"?>
<svg width="24px" height="24px" viewBox="0 0 24 24" version="1.1" xmlns="http://www.w3.org/2000/svg" xmlns:xlink="http://www.w3.org/1999/xlink">
    <title>ED6FEC13-7CE4-4443-9004-C042418C634C</title>
    <g id="Icons-24px" stroke="none" stroke-width="1" fill="none" fill-rule="evenodd">
        <g id="1---Icons/Action/New-window/24px/1-Outlined" fill="#1971c2" fill-rule="nonzero">
            <g id="🎨-colour" transform="translate(4.000000, 4.000000)">
                <path d="M7,0.5 C7,0.776150554 6.77615056,1.00002264 6.5,1.00005057 L1.47062972,1.00055922 L1.47062972,1.00055922 C1.23958828,1.00055922 1.0474316,1.17753329 1.00758247,1.41091293 L1,1.50083882 L1,14.4991612 C1,14.7447583 1.16648542,14.949021 1.38603343,14.9913806 L1.47062972,14.9994408 L14.5293703,14.9994408 C14.7604117,14.9994408 14.9525684,14.8224667 14.9924175,14.5890871 L15,14.4991612 L15,9.5 C15,9.22385763 15.2238576,9 15.5,9 C15.7761424,9 16,9.22385763 16,9.5 L16,14.4991612 L16,14.4991612 C16,15.2792933 15.440056,15.9204042 14.7240852,15.9931296 L14.5881108,16 L1.41188917,16 C0.677992832,16 0.0748784329,15.4047792 0.00646323144,14.643702 L0,14.4991612 L0,1.50083882 C0,0.720706688 0.559944026,0.0795958082 1.27591482,0.00687041796 L1.41188917,0 L6.5,0 C6.77614237,-5.07265313e-17 7,0.223857625 7,0.5 Z M15.5,0 C15.7454599,0 15.9496084,0.176875161 15.9919443,0.410124368 L16,0.5 L16,6.5 C16,6.77614237 15.7761424,7 15.5,7 C15.2545401,7 15.0503916,6.82312484 15.0080557,6.58987563 L15,6.5 L15,1 L9.5,1 C9.22385763,1 9,0.776142375 9,0.5 C9,0.254540111 9.17687516,0.0503916296 9.41012437,0.00805566941 L9.5,0 L15.5,0 Z M15.2412859,0.146446609 C15.4148522,-0.0488155365 15.6962589,-0.0488155365 15.8698252,0.146446609 C16.0241064,0.320012961 16.0412488,0.589437362 15.9212523,0.784305503 L15.8698252,0.853553391 L8.75871412,8.85355339 C8.58514777,9.04881554 8.30374112,9.04881554 8.13017476,8.85355339 C7.97589356,8.67998704 7.95875121,8.41056264 8.0787477,8.2156945 L8.13017476,8.14644661 L15.2412859,0.146446609 Z"></path>
            </g>
        </g>
    </g>
</svg>